<svg xmlns="http://www.w3.org/2000/svg" viewBox="0 0 1096.1 386.8"><path d="M131.3 161.9H181v80.8h-49.7zM0 0h49.7v242.7H0zm588.7 0h49.7v242.7h-49.7zM321.2 242.7h-49.7L131.3 0H181zM520.9 0l-99.8 162.5L321.2 0zm220.3 21.4c-28.5 28.5-28.5 74.7 0 103.2L844.4 21.4c-28.5-28.5-74.7-28.5-103.2 0M1055 362.7v-41.4c0-6.3-1.1-10.3-3-13h15.5c12 0 16.5 4 16.5 16.1v38.3h7.8v-41.2c0-20.1-15.3-20.4-24.3-20.4-5.2 0-13.4.8-21 2.2-4.1-1.9-9.3-2-14.2-2-5.3 0-14.2.7-23 2.1v59.3h7.8v-54.5h16.6c11 0 13.4 4.2 13.4 16.1v38.4h7.9zm-68.5-29.6v24.1h-24.3c-8.5 0-12.2-3.2-12.2-10.5v-2.3c0-8.7 5.4-11.2 13.3-11.2h23.2v-.1zm7.7-11.5c0-17-9.7-20.3-23.1-20.3-6.2 0-13.8.4-19.6 1.3v5.3H972c10.4 0 14.5 4.2 14.5 14.2v5.5c-11.8-1.6-20-1.7-23.1-1.7-12.4 0-21.8 4.2-21.8 20.1 0 16.5 9.9 17.9 23.6 17.9 6.3 0 18.6-.6 28.7-2.2l.3-40.1zm-101 5c0-9.9 3.3-18.6 16.8-18.6h3.4c12.4 0 14.4 8.9 14.4 17.5v3.6h-34.6v-2.5zm18.1-25.3c-20.4 0-26.2 11.7-26.2 32.3 0 20.8 5.3 30.3 25.6 30.3 5.5 0 14.7-.6 20.3-1.6v-4.9h-19.5c-14.4 0-18.3-6.7-18.3-18.9v-3h36.7c3.8 0 5.5-2.6 5.5-5.9v-4.2c0-15.3-7.1-24.1-24.1-24.1m-59.1 7.2h20.5v-5.7h-20.4v-16.5h-4.4l-2.9 16.3-12.1 1.2v4.8h11.8V347c0 10.9 2.8 17.2 16.3 17.2 4.2 0 10.5-.7 15.5-1.7v-4.9h-13.9c-7.4 0-10.4-2.2-10.4-10.9v-38.2zM771 333.2c0 24.8 9.3 30.7 25.9 30.7h2.1c15.6 0 25.6-7.1 25.6-31.3 0-24.3-9.7-31.3-25.6-31.3h-2.2c-16.2 0-25.8 7.3-25.8 31.9m45.2 2.9c0 12.5-3.1 21.4-16.9 21.4h-3.2c-14.3 0-16.9-8.5-16.9-22.8v-4c0-14.2 2.7-22.8 17.2-22.8h2.6c14.7 0 17.2 8.5 17.2 22.8v5.4zm-81.1 16.7l-20.9-49.9h-8.1l25.3 59.8h7.7l24.1-59.8h-7.9l-19.6 49.9h-.6zm-75.8-26.2c0-9.9 3.3-18.6 16.8-18.6h3.4c12.4 0 14.4 8.9 14.4 17.5v3.6h-34.6v-2.5zm18.1-25.3c-20.4 0-26.2 11.7-26.2 32.3 0 20.8 5.3 30.3 25.6 30.3 5.5 0 14.7-.6 20.3-1.6v-4.9h-19.5c-14.4 0-18.3-6.7-18.3-18.9v-3H696c3.8 0 5.5-2.6 5.5-5.9v-4.2c.1-15.3-7-24.1-24.1-24.1m-47.9 6.9v49.1H612c-13 0-17.1-5.5-17.1-21.9v-5.6c0-12.9 3.1-21.6 17.6-21.6h17zm7.7-27.3h-7.7v22c-8.9-1.1-14.5-1.6-18.5-1.6-13.7 0-24.4 5.3-24.4 32.1 0 28.2 10.2 30.5 25.9 30.5 5.4 0 13.9-.1 24.8-1.6l-.1-81.4zM511 386.8l31.1-84h-7.7l-19.8 52.4h-.8l-20.3-52.4h-8.2l23.6 59.9h3.1l-8.9 24.1h7.9zm-58.9-78.6c14.5 0 17.6 8.2 17.6 21.1v5.7c0 16.3-4 22.3-17.1 22.3h-17.4v-49.1h16.9zm-24.7 54.2c10.9 1.4 19 1.6 24.8 1.6 15.2 0 25.9-3.8 25.9-32 0-26.7-11-30.6-24.4-30.6-4.5 0-9.5.4-18.4 1.6v-22h-7.8l-.1 81.4zm278.7-145.6c38.3 35.2 98 34.2 135.1-3 37.1-37.1 38.1-96.6 3.1-134.9L706.1 216.8zm390-56.1c0 45.2-36.6 81.8-81.8 81.8s-81.8-36.6-81.8-81.8 36.6-81.8 81.8-81.8c45.1 0 81.8 36.7 81.8 81.8" fill="#181716"/></svg>