<?xml version="1.0" encoding="utf-8"?>
<!-- Generator: Adobe Illustrator 24.3.0, SVG Export Plug-In . SVG Version: 6.00 Build 0)  -->
<svg version="1.1" id="Layer_1" xmlns="http://www.w3.org/2000/svg" xmlns:xlink="http://www.w3.org/1999/xlink" x="0px" y="0px"
	 viewBox="0 0 500 500" style="enable-background:new 0 0 500 500;" xml:space="preserve">
<style type="text/css">
	.st0{fill:#00B49B;}
</style>
<g>
	<g>
		<path class="st0" d="M70.4,436h-5.8v-11h22.7v9.6h-4.2v27.1h3.6V472H64.7v-11h5.8V436z M83.8,447.7l11.7-13.2h-4.3V425h21.9v11
			h-5.1l-10.5,10.8l13,14.1h4.6v11H90.9v-10.3h4.8L83.8,447.7z"/>
		<path class="st0" d="M144.8,442.3c0-3.6-2-5-7.6-5c-4,0-8,0.9-13.7,3l-2.8-10.5c6.2-2,11.5-2.9,17.3-2.9c9.1,0,15,2.6,17.6,7.6
			c1.4,2.8,1.9,5.7,1.9,11.7V461h5.8v11h-17.2v-4c-3.6,3.6-7.6,5.2-13.6,5.2c-10.1,0-15.8-5-15.8-13.9c0-8.2,4.6-13,13.9-14.5
			c2.9-0.5,7.5-0.7,14.1-0.7V442.3z M144.8,453.5c-4.8,0-7.5,0.1-9.4,0.4c-4,0.7-5.9,2.2-5.9,4.9s1.6,3.7,5.9,3.7
			c3.6,0,6.1-0.6,7.9-2c1.2-1,1.5-1.7,1.5-4.1V453.5z"/>
		<path class="st0" d="M172.7,439.1h-6v-11h18.1v5.9c4.6-5.7,7.2-7.2,11.9-7.2c2.7,0,5,0.4,7.5,1.3l-1.7,11.4
			c-2.2-0.8-4.1-1.2-6.4-1.2c-4.2,0-7.3,2.1-10.7,7.5V461h8.2v11h-26.9v-11h6V439.1z"/>
		<path class="st0" d="M207.6,428.1h7.2l1.4-13.6h11.4v13.6h13.8v11h-13.8v14.7c0,6.8,1.1,8.4,5.7,8.4c2.3,0,5.2-0.7,7.6-2l2.5,10.5
			c-3.9,1.7-7.6,2.5-11.6,2.5c-11.5,0-16.9-5.6-16.9-17.6v-16.5h-7.2V428.1z"/>
		<path class="st0" d="M259.6,454.2c1.2,5.5,4.4,8,10.2,8c5,0,8.8-1.2,14.4-4.5l5.7,9.6c-7.2,4.3-13.1,6-20.3,6
			c-14.1,0-22.9-8.9-22.9-23.3c0-14.3,8.4-23.2,22.1-23.2c9.2,0,16.2,4.4,19.3,12.1c1.6,4,2,7.2,2.2,15.3H259.6z M277.9,444.8
			c-1.1-5-4.1-7.4-9.2-7.4c-4.8,0-7.7,2.4-9,7.4H277.9z"/>
		<path class="st0" d="M302,419h-6v-11h18.7V461h6v11h-25.4v-11h6.7V419z"/>
		<path class="st0" d="M331.1,419h-6v-11h18.7V461h6v11h-25.4v-11h6.7V419z"/>
		<path class="st0" d="M366.9,454.2c1.2,5.5,4.4,8,10.2,8c5,0,8.8-1.2,14.4-4.5l5.7,9.6c-7.2,4.3-13.1,6-20.3,6
			c-14.1,0-22.9-8.9-22.9-23.3c0-14.3,8.4-23.2,22.1-23.2c9.2,0,16.2,4.4,19.3,12.1c1.6,4,2,7.2,2.2,15.3H366.9z M385.2,444.8
			c-1.1-5-4.1-7.4-9.2-7.4c-4.8,0-7.7,2.4-9,7.4H385.2z"/>
		<path class="st0" d="M401.1,428.1h7.2l1.4-13.6h11.4v13.6h13.8v11h-13.8v14.7c0,6.8,1.1,8.4,5.7,8.4c2.3,0,5.2-0.7,7.6-2l2.5,10.5
			c-3.9,1.7-7.6,2.5-11.6,2.5c-11.5,0-16.9-5.6-16.9-17.6v-16.5h-7.2V428.1z"/>
	</g>
	<g>
		<path class="st0" d="M196.6,182.1h-12.8v-23.7h40.4v70.8H237v23.7h-54.8v-23.7h14.4V182.1z M194.3,117.2h27.6v28.7h-27.6V117.2z"
			/>
		<path class="st0" d="M242,158.4h15.5l3.1-29.3h24.5v29.3h29.7v23.7h-29.7v31.8c0,14.6,2.3,18,12.3,18c5,0,11.1-1.5,16.3-4.2
			l5.4,22.6c-8.4,3.6-16.5,5.4-25.1,5.4c-24.9,0-36.4-12.1-36.4-37.9v-35.6H242V158.4z"/>
	</g>
	<polygon class="st0" points="64.5,376.4 156,376.4 156,345.6 95.3,345.6 95.3,36.9 156,36.9 156,6 64.5,6 	"/>
	<polygon class="st0" points="343.3,6 343.3,36.9 404,36.9 404,345.6 343.3,345.6 343.3,376.4 434.9,376.4 434.9,6 	"/>
</g>
</svg>
