<svg xmlns="http://www.w3.org/2000/svg" viewBox="0 0 167.32 53.69"><defs><style>.cls-1,.cls-2{fill:#ffffff;}.cls-1{fill-rule:evenodd;}</style></defs><title>Asset 1</title><g id="Layer_2" data-name="Layer 2"><g id="Lag_1" data-name="Lag 1"><path class="cls-1" d="M75.7,22.36s7.49,6.4,15.93,6.12C86.11,38,84.4,44.19,84.4,44.19S77.48,39.72,79,26.64C77.5,25.65,75.7,22.36,75.7,22.36Z"/><circle class="cls-2" cx="74.94" cy="13.02" r="0.74"/><path class="cls-1" d="M65.42,10.51a32.73,32.73,0,0,1,4.34-.19s6.53-4.35,14.62.41C91.57-.84,106.25,0,106.25,0s-9,11.07-10.14,14.75c.76,3.48,6.91,5.7,6.91,5.7s10.71,5,11.25,5.71c0,.28-3.3.25-3.42.6s1.3,2.41,1.2,2.54-7.38-4.76-8.65-4.92c-1.49-.63-12.59-1.74-14.4-2a21,21,0,0,1-9.06-4.28s1-5.89-5.17-7.22c-3-.26-4.88,2.94-5.17,3.17C68,12.66,66.53,11.55,65.42,10.51Z"/><path class="cls-2" d="M7.44,49.8l2.94-7.69c.15-.41.22-.53.34-.6s.26-.11.75-.11c.29,0,.64,0,1,0s.76,0,1.07,0a1.52,1.52,0,0,1,.28,0c.24,0,.35.07.35.25s-.06.25-.7.28-.86.22-.86,1.09c0,.09,0,.16,0,.25l.24,8c0,1.3.1,1.42.86,1.44.42,0,.57.09.57.28s-.12.27-.46.27a3.47,3.47,0,0,1-.43,0c-.44,0-.94,0-1.49,0s-1.1,0-1.66,0l-.62,0c-.24,0-.34-.09-.34-.27a.29.29,0,0,1,.25-.28l.47,0c.67,0,.85-.32.85-1.22v-.2l-.16-8.2L7.18,52.39c-.19.54-.26.64-.44.64s-.28-.14-.42-.48L2.64,43.43c-.22,3.39-.27,4.63-.27,6.19,0,2.81.08,3.07,1.08,3.09.57,0,.71.07.71.31s-.14.28-.52.28l-.45,0c-.37,0-.72-.05-1-.05l-1,0a7.07,7.07,0,0,1-.8,0c-.21,0-.31-.07-.31-.23s.09-.25.71-.34.88-.37.91-1.54c0-.4.06-1.11.12-2.12.13-1.93.21-3.55.28-5.75V43c0-.53,0-.73-.12-.83S1.68,42,1.16,42,.4,41.92.4,41.67s.12-.27.45-.27l.32,0a5.28,5.28,0,0,0,.63,0h.26l.91,0c.33,0,.59,0,.78,0s.43.07.48.23l.17.48Z"/><path class="cls-2" d="M27.13,42.68v8.7c0,1.08.15,1.3.93,1.35.52,0,.64.11.64.32s-.09.27-.38.27H28l-.5,0-.4,0-1,0-1,0-.4,0c-.21,0-.38,0-.5,0H24c-.3,0-.4-.07-.4-.27s.14-.28.66-.32c.77,0,.93-.27.93-1.35V42.5c0-.41-.11-.51-.47-.51h-.07L24,42a2.91,2.91,0,0,0-2.57,1.81c-.16.3-.26.39-.42.39a.25.25,0,0,1-.24-.25,1.42,1.42,0,0,1,.05-.3L21.53,41c.07-.29.13-.36.28-.36s.17.07.22.27c.09.42.26.53.82.53h5.94c1.55,0,1.95-.11,2.14-.59.07-.21.12-.26.24-.26s.26.14.26.55v.21l-.12,2.33c0,.44-.1.6-.3.6s-.25-.11-.31-.41C30.46,42.4,30,42,28.44,42c-.4,0-.69,0-.86,0a.55.55,0,0,0-.33.08C27.15,42.17,27.13,42.31,27.13,42.68Z"/><path class="cls-2" d="M42.14,46.59h4c.66,0,.7,0,.7-.59V43.3c0-1.06-.16-1.29-.94-1.35-.51,0-.65-.11-.65-.32s.1-.26.38-.26h.31l.48,0c.69,0,.88.05,1.38.05s.69,0,1.38-.05l.49,0h.29c.3,0,.4.07.4.26s-.14.29-.66.32c-.77.06-.93.29-.93,1.35v8.08c0,1.08.16,1.3.93,1.35.52,0,.66.11.66.32s-.1.27-.4.27h-.29c-.78-.06-1.38-.07-1.87-.07s-1.1,0-1.86.07h-.31c-.28,0-.38-.07-.38-.27s.14-.28.65-.32c.78,0,.94-.27.94-1.35V47.71c0-.45-.07-.48-.63-.48H42.24c-.5,0-.55,0-.62.05s-.11.19-.11.39v3.71c0,1.08.16,1.3.94,1.35.51,0,.65.11.65.32s-.1.27-.38.27h-.31c-.07,0-.24,0-.48,0-.69,0-.88,0-1.38,0s-.69,0-1.38,0c-.25,0-.42,0-.49,0h-.31c-.28,0-.38-.07-.38-.27s.14-.28.66-.32c.76,0,.93-.27.93-1.35V43.3c0-1.06-.17-1.29-.93-1.35-.52,0-.66-.11-.66-.32s.1-.26.38-.26h.31l.49,0c.72,0,.91.05,1.39.05s1.09,0,1.85-.07h.31c.28,0,.38.07.38.26s-.14.29-.65.32c-.78.06-.94.29-.94,1.35V46c0,.34,0,.42.07.48S41.76,46.59,42.14,46.59Z"/><path class="cls-2" d="M60.73,47.92v3.46c0,1.08.16,1.3.94,1.35.51,0,.64.11.64.32s-.11.27-.38.27h-.3c-.1,0-.27,0-.5,0-.78,0-1-.05-1.43-.05s-.68,0-1.45.05c-.23,0-.4,0-.49,0h-.31c-.27,0-.38-.07-.38-.27s.14-.28.66-.32c.76,0,.93-.27.93-1.35V43.3c0-1.06-.17-1.29-.93-1.35-.52,0-.66-.11-.66-.32s.11-.26.38-.26h.31l.49,0c.67,0,.83,0,1.41,0s1.13,0,1.77,0l1.29,0c2.37,0,3.87,1.31,3.87,3.39a3.38,3.38,0,0,1-3.44,3.37,4.34,4.34,0,0,1-1.62-.35,3.41,3.41,0,0,0-.64-.2C60.75,47.58,60.73,47.63,60.73,47.92Zm0-4.55v3.27c0,.51.35.71,1.3.71a2.49,2.49,0,0,0,2.47-2.68,2.67,2.67,0,0,0-2.59-2.83C61,41.84,60.73,42.17,60.73,43.37Z"/><path class="cls-2" d="M104.27,48.13v3.25c0,1.08.15,1.3.93,1.35.52,0,.64.11.64.32s-.1.27-.38.27h-.29c-.8-.06-1.44-.07-1.94-.07s-1.12,0-1.88.07H101c-.28,0-.38-.07-.38-.27s.14-.28.66-.32c.76,0,.93-.27.93-1.35V43.3c0-1.06-.17-1.29-.93-1.35-.52,0-.66-.11-.66-.32s.1-.26.38-.26h.31l.48,0,.4,0h5.18l.78,0,.59,0h.06c.3,0,.33.05.33.33v2c0,.23-.07.35-.2.35s-.26-.12-.37-.37l-.22-.53C108,42.34,107.05,42,105.2,42c-.78,0-.93.18-.93,1v2.58c0,.82,0,1,.15,1a.88.88,0,0,0,.35.07l.83,0h.1c1.21,0,1.59-.27,1.94-1.41,0-.23.13-.3.29-.3s.22.09.22.34,0,.55,0,.92a11.3,11.3,0,0,0,0,1.85l0,.87,0,0c0,.22-.09.32-.25.32a.32.32,0,0,1-.27-.3l-.21-.74c-.17-.7-.76-1-1.92-1a2.81,2.81,0,0,0-1.12.11C104.29,47.44,104.27,47.56,104.27,48.13Z"/><path class="cls-2" d="M128.88,47.21a6.35,6.35,0,0,1-6.31,6.23,6.1,6.1,0,1,1,.05-12.2A6.07,6.07,0,0,1,128.88,47.21Zm-2.23.09c0-3.18-1.83-5.58-4.27-5.58s-3.92,2.11-3.92,5.2c0,3.34,1.9,6,4.25,6S126.65,50.51,126.65,47.3Z"/><path class="cls-2" d="M146.3,50.21l-.09-5.88c0-2-.12-2.29-1-2.34-.68,0-.85-.09-.85-.3s.16-.27.48-.27a2.42,2.42,0,0,1,.38,0c.26,0,.63,0,1.09,0s1.14,0,1.45,0a3.25,3.25,0,0,1,.54,0c.21,0,.33.09.33.27s-.16.3-.73.35c-.81.07-.95.23-.95,1.18l0,9.94c0,.41-.08.55-.31.55s-.33-.11-.6-.46l-7.88-10.12.07,6.58c0,2.58.16,3,1.09,3l.5,0c.21,0,.33.12.33.27s-.14.26-.45.26a5.17,5.17,0,0,1-.52,0c-.31,0-.64,0-1,0s-.9,0-1.4.07l-.69.05c-.23,0-.33-.09-.33-.26s.07-.24.85-.34c.43-.06.63-.18.74-.41a9.5,9.5,0,0,0,.14-2.43V43.6c0-1.43-.11-1.65-.95-1.67-.54,0-.69-.07-.69-.28s.13-.27.58-.27h.12l1.32.06c.13,0,.57,0,1.24,0h.07a.49.49,0,0,1,.5.25l.21.28Z"/><path class="cls-2" d="M156.8,51.38V43.27c0-.71-.19-1-.59-1a1.08,1.08,0,0,0-.34,0,4.39,4.39,0,0,1-.47.11.2.2,0,0,1-.22-.22c0-.23.27-.35,1-.49a21.18,21.18,0,0,1,3.8-.32,7.87,7.87,0,0,1,4.9,1.2,6,6,0,0,1,2.46,4.78,6.19,6.19,0,0,1-2.44,4.88,5.84,5.84,0,0,1-3.73,1.1h-.33l-1.59-.06h-1.48c-.59,0-.78,0-1.37,0l-.48,0h-.31c-.28,0-.38-.07-.38-.27s.14-.28.66-.32C156.63,52.68,156.8,52.46,156.8,51.38Zm1.95-7.94V51c0,1.37.47,1.88,1.73,1.88,2.57,0,4.66-2.41,4.66-5.43,0-3.25-2.12-5.56-5.11-5.56C159,41.86,158.75,42.15,158.75,43.44Z"/></g></g></svg>