<svg width="457" viewBox="0 0 457 199" xmlns="http://www.w3.org/2000/svg" xmlns:xlink="http://www.w3.org/1999/xlink"><defs><path id="a" d="M0 .2h172.11v173.203H0z"/><path id="c" d="M0 199.54h420V.858H0z"/></defs><g fill="none" fill-rule="evenodd"><g transform="translate(0 -.682)"><path d="M160.435 63.732l.23-.043c1.645-.311 9.155-4.14 9.472-4.304l.074-.037 4.58-8.19-16.348 7.107 1.992 5.467zm25.673-18.862l-9.058 4.022-4.775 8.553 11.222-6.253zm-55.991-20.12l-9.398 9.76 11.317 1.557zM145.868.858l-5.03 7.94 3.499 4.635zm-7.515 13.832l-6.317 7.545 10.06-2.434zm5.001 26.94l7.544-13.108-15.09 13.833zm5.829 15.815l5.488-8.803-7.759 1.787-16.134 7.016zm14.29-18.435l-.324-.428L145.87 49.9l8.21-1.832zm-9.014.83l9.014-11.338-5.197 2.54-1.746-3.777-6.89 12.575zm-19.909 89.504l-24.9-11.54-.249.512 21.411 13.32zm17.232-36.69l9.176-7.388-10.06-.157zm17.428-28.922l-8.252 7.545 10.06-2.586zM151.277 95.17l-9.181 7.544 14.493-3.246 3.112-3.897-8.329-.398zm-17.984 14.913l2.06 6.463 9.258-6.458-6.083-3.602zm3.773-7.437l-14.256-1.19-.834 10.06zm27.3-18.794l7.91-5.03h-10.06zm29.802-45.209l-3.03 7.484 10.06-11.317zm-8.06-10.121l5.03-13.832-5.03 6.975zm-8.456 45.27l12.228-8.803-13.832 3.332zM143.13 96.664l6.51-4.01-23.448.25-.121.003-4.095 4.777 21.084-1.016zm-23.669 8.565V91.397l-12.575 13.832zm28.117-25.149l-11.77 7.544h12.575zm-28.117 11.317l25.15-.23-1.51-2.285h-15.72zm-10.54 50.323c.727.57 7.528 6.147 7.597 6.203l.073.06h5.385l-1.81-3.674-13.28-7.643.184.668c.107.384 1.063 3.768 1.851 4.387m-5.807 1.233l-2.257-10.916-14.09-2.917 12.022 11.915zm56.586-65.11l-2.2-6.567-6.602 8.802zm-67.513 67.625l5.897-1.78-13.833-12.053zm2.124-17.605h21.378l-10.676-7.545zm22.635 7.943l-3.253-4.17h-10.58l13.833 8.802zm-7.496-27.755c1.56 9.752 2.25 9.752 2.51 9.752.745 0 7.26-3.439 8.557-4.126l.202-.108-2.02-5.826H109.4l.049.308z" fill="#E63E4E"/><g transform="translate(0 26.007)"><mask id="b" fill="#fff"><use xlink:href="#a"/></mask><path d="M69.067 39.3l.217.518-7.023 7.081 6.806-7.6zM39.915 80.989l-.157-.002-.152.104-.104.353-1.821.967 1.925-1.32.788-2.673-.198.191.225-.285-.027.094.275-.263-.754 2.834zm-3.1 1.883l2.528-3.187-2.032 2.923-.496.264zm80.49 58.94l15.476 4.59-2.548.505 7.297 3.619 1.232.32-6.165 1.984-.11-.072-5.703-3.76 6.567 7.238-12.075-8.57 9.274 9.004-20.722-12.136 6.492 10.066-16.186-16.346 8.68 14.13-.441.324-13.928-16.016-10.023-2.739.722 2.842-10.941-3.833.675 2.648c.968.294 1.932.59 2.892.904.157.513.214.89.057.928-.562.141-2.663 2.243-2.663 2.243l-.717.998-.517 1.698-1.023-.219-3.484-.373-1.365 3.252-.748 8.67-2.962-7.457-.053.003-1.203 3.757-.391 2.008-.348.299-.124.385-1.271.812-2.179 1.873-4.66 3.252a6.46 6.46 0 00-2.224 1.743 6.76 6.76 0 00-1.609 1.876l-2.1 2.919.405 2.538c-.16 1-.403 1.773-.403 1.773l-1.28-.413-1.854-1.215-3.22.281-3.462 1.998-1.441 1.372c-.181.043-1.4 1.34-1.277 1.888-.241-.253-1.154.038-1.439-.178-.064-.476-.327-.27-.447-.736.044-.41.546-1.6.546-2.009l1.521-2.863 4.247-3.188 1.716-.891 1.086-.51 6.056-4.421 2.194-1.602 1.833-1.337.822-2.658c-.07-.238-.147-.47-.21-.711l.143-.43c.1-.088.17-.202.263-.296-1.956.944-3.89 1.85-3.89 1.85l-2.94.563-3.256 2.662-.735.141-1.262-1.823h-.77l-1.82 1.052-2.73.63-3.572.49-2.101 1.766a7.265 7.265 0 00-.71-.333 6.363 6.363 0 00-.41-.544v-.117l1.26-1.681.84-2.033 1.19-.702 5.393-1.121 5.671-3.575h4.063l7.607-2.34.166-.534-2.755-5.952-.935-1.806-2.263-2.265-.091-6.603c.064.017.128.03.19.047l-.229-3.24-4.266-4.473-7.36-11.105-3.667-2.354-5.273-2.092-2.201-2.128 3.885 4.5-3.896-1.097-5.972-3.339c-2.074.686-5.307 1.782-5.708 1.977-.104.095-.398.167-1.892.167-.297 0-.647-.003-1.046-.009l-4.707 3.439-2.221 3.103-3.32 5.053.022 1.504L0 113.147l.442-5.596 2.118-4.556 2.009-2.01 1.242-5.347 1.354-5.855h.002l.31-1.332.104.724 6.803-10.544v2.596l2.591-1.884.362.41-7.493 7.995 4.512-3.426-.001.005 8.498-6.407 3.668-.874-2.238 2.763-9.885 5.257 10.106-4.95h1.754l3.578-2.874 10.508-4.023-3.846 4.004h3.967l.192-.097 3.894-14.651 10.566-9.854v1.132l11.716-20.03 2.596-9.873v14.886l.046.11-.046.05v.776l4.323-4.357 13.997-23.08.136-.54.057.08L92.686.2v18.254l.087.123-.087.083v.744l-.317-.444-7.513 7.126.64 5.584 14.077-18.71 5.933-9.005 3.704 7.106-6.487 15.42 15.332-13.646 11.448 1.456-10.771 12.929h.265l-.577.417v.135h-.148l-.404.483v-.222l-5.66 4.078h3.265l.011-.012.03.004 16.106-9.326L127.638 33l.02-.01-.111.268 16.966.373-10.47 9.287 7.856-3.493 1.067.755 12.48-12.768.226.55 5.608-8.498 10.83-10.182-5.471 11.118-.057.04-10.857 7.654 2.103 5.095-14.403 7.319 6.139 4.358-16.808-.76-1.005.927 17.065.772-23.676 6.418 3.292.127 25.393-6.883-7.273-5.166 14.994-1.802-7.075 6.792.138-.036-5.78 7.89-.147-.004-5.836-.225-10.635 5.502h.468l-1.49.53-.044.022h-.02l-13.82 4.911-12.53 13.703 2.38 10.181-22.6-8.51 23.224 13.673H99.05l.358.32-1.035-.296-7.605 5.077.598.639-.508-.197 1.67 3.875-.47-.052c-1.457-.163-10.617-2.014-13.025-2.504l6.933 12.801-5.805-2.992 4.427 5.586.162.044-.015.077 12.682 8.923-3.79.576 12.198 9.68 9.483 6.053 1.995 1.275z" fill="#E63E4E" mask="url(#b)"/></g><path fill="#1F2C33" d="M220.735 105.687h-.183l-10.008-15.91v24.254h-5.574V80.08h5.986l9.733 16.056 9.732-16.056h5.986v33.952h-5.573v-24.35zm67.229-5.392c0 2.484-.332 4.664-.993 6.542-.662 1.88-1.594 3.445-2.794 4.703-1.2 1.26-2.657 2.195-4.366 2.819-1.708.62-3.624.93-5.75.93-2.093 0-3.987-.31-5.68-.93-1.694-.624-3.14-1.552-4.34-2.795-1.204-1.24-2.128-2.777-2.773-4.607-.646-1.83-.969-3.956-.969-6.377V81.337h5.634v19.006c0 3.118.728 5.491 2.184 7.114 1.453 1.624 3.466 2.436 6.036 2.436 2.54 0 4.537-.78 5.993-2.34 1.455-1.56 2.184-3.883 2.184-6.973V81.337h5.634v18.958zm45.773-20.215h5.784v33.951h-4.873l-18.266-24.156v24.156H310.6V80.08h5.393l17.745 23.476z"/><mask id="d" fill="#fff"><use xlink:href="#c"/></mask><path fill="#1F2C33" mask="url(#d)" d="M363.413 114.031h5.03V80.08h-5.03zm52.06-33.951h5.784v33.951h-4.873L398.12 89.875v24.156h-5.784V80.08h5.394l17.744 23.476zm-185.308 71.047c0-8.051-5.625-14.648-14.54-14.648h-8.275v29.295h8.275c8.915 0 14.54-6.45 14.54-14.55v-.097zm-14.54 16.976H204.97v-33.952h10.655c10.059 0 17.01 7.325 17.01 16.88v.096c0 9.555-6.951 16.976-17.01 16.976zm52.8-31.207l-8.947 19.505h17.846l-8.899-19.505zm14.267 31.207l-4.304-9.44h-19.974l-4.305 9.44h-2.612l15.768-33.952h2.42l15.764 33.952h-2.757zm32.888-31.624v31.624h-2.42V136.48h-11.364v-2.328h25.15v2.328zm44.642.417l-8.948 19.505h17.846l-8.898-19.505zm14.267 31.207l-4.307-9.44h-19.973l-4.304 9.44h-2.612l15.766-33.952h2.419l15.768 33.952h-2.757z"/></g><path d="M449.308 93.7A7.286 7.286 0 01442 86.392v-.042c0-3.99 3.234-7.35 7.308-7.35a7.286 7.286 0 017.308 7.308v.042c0 3.99-3.234 7.35-7.308 7.35zm0-.798c3.654 0 6.468-2.982 6.468-6.552v-.042c0-3.57-2.772-6.51-6.468-6.51-3.654 0-6.468 2.982-6.468 6.552v.042c0 3.57 2.772 6.51 6.468 6.51zm-2.73-3.024v-7.35h3.276c1.512 0 2.73.798 2.73 2.268 0 1.218-.798 1.932-1.806 2.226l2.058 2.856h-1.47l-1.848-2.688h-1.764v2.688h-1.176zm1.176-3.654h1.974c1.05 0 1.638-.546 1.638-1.344 0-.882-.63-1.302-1.638-1.302h-1.974v2.646z" fill="#1F2C33" fill-rule="nonzero"/></g></svg>