<svg xmlns="http://www.w3.org/2000/svg" width="349" height="86" fill="none" viewBox="0 0 349 86"><path fill="#199BD7" d="M145.44 85.724V70.317h10.693v3.228h-6.822v3.528h6.015v3.114h-6.015v5.537h-3.871zM167.836 85.723a3.154 3.154 0 01-.737-1.683l-.414-2.053a1.866 1.866 0 00-.704-1.311 1.864 1.864 0 00-1.44-.372h-2.281v5.42h-3.802V70.315h7.005c3.548 0 5.715 1.452 5.715 4.566a3.723 3.723 0 01-3.318 3.853v.045a2.928 2.928 0 012.558 2.468l.621 2.653c.149.68.475 1.31.946 1.822h-4.149zm-2.788-12.27h-2.788v3.829h2.812c1.382 0 2.096-.623 2.096-1.962 0-1.2-.668-1.867-2.12-1.867zM187.722 78.019c0 4.936-2.881 7.981-7.352 7.981-4.47 0-7.328-3.045-7.328-7.981s2.858-7.981 7.328-7.981c4.471 0 7.352 3.044 7.352 7.981zm-10.67 0c0 2.907 1.175 4.752 3.318 4.752 2.144 0 3.341-1.845 3.341-4.752 0-2.905-1.197-4.75-3.341-4.75-2.143 0-3.318 1.845-3.318 4.75zM198.873 82.263h-2.258l-2.928-6.136h-.046l.024 3.161v6.435h-3.711V70.316h4.171l3.641 7.496h.046l3.619-7.496h4.101v15.407h-3.71v-6.435l.023-3.161h-.046l-2.926 6.136zM219.793 80.787h-.069l-3.18 4.936h-4.125l5.162-7.866-4.886-7.54h4.287l2.857 4.612h.069l2.857-4.613h4.125l-4.862 7.474 5.185 7.933h-4.262l-3.158-4.936zM239.862 85.723h-10.923V70.316h10.877v3.23h-7.144v2.951h6.337v2.906h-6.337v3.092h7.19v3.228zM251.865 85.723a3.163 3.163 0 01-.738-1.683l-.414-2.053a1.85 1.85 0 00-.704-1.311 1.85 1.85 0 00-1.44-.372h-2.28v5.42h-3.803V70.315h7.006c3.548 0 5.714 1.452 5.714 4.566a3.726 3.726 0 01-3.318 3.853v.045a2.928 2.928 0 012.558 2.468l.622 2.653a3.95 3.95 0 00.945 1.822h-4.148zm-2.788-12.27h-2.788v3.829h2.811c1.382 0 2.097-.623 2.097-1.962 0-1.2-.669-1.867-2.12-1.867zM271.749 78.019c0 4.936-2.881 7.981-7.351 7.981-4.471 0-7.328-3.045-7.328-7.981s2.857-7.981 7.328-7.981c4.47 0 7.351 3.044 7.351 7.981zm-10.669 0c0 2.907 1.175 4.752 3.318 4.752s3.341-1.845 3.341-4.752c0-2.905-1.198-4.75-3.341-4.75-2.143 0-3.318 1.845-3.318 4.75zM280.808 58.032a.604.604 0 01-.641-.642v-2.952h-.064c-1.475 2.438-4.104 4.3-8.72 4.3-5.321 0-9.041-2.503-10.579-7.38a25.6 25.6 0 01-1.09-8.729c-.139-2.929.23-5.86 1.09-8.663 1.538-4.878 5.258-7.38 10.579-7.38 4.616 0 7.245 1.796 8.72 4.235h.064V15.032a.616.616 0 01.176-.465.61.61 0 01.465-.177h4.103a.607.607 0 01.641.642V57.39a.6.6 0 01-.176.465.608.608 0 01-.465.177h-4.103zm-1.346-8.985c.585-2.086.823-4.254.705-6.418a20.06 20.06 0 00-.705-6.417c-1.026-3.08-3.399-4.621-6.796-4.621a6.515 6.515 0 00-6.733 4.62 21.869 21.869 0 00-.705 6.418 21.337 21.337 0 00.705 6.418 7.233 7.233 0 006.764 4.685 7.233 7.233 0 006.765-4.685zM312.739 58.032a.6.6 0 01-.465-.176.61.61 0 01-.176-.466v-2.695h-.064c-1.411 2.31-4.424 4.043-9.105 4.043-5.834 0-10.322-3.016-10.322-9.242 0-6.482 4.488-9.498 11.99-9.498h6.988a.341.341 0 00.385-.385v-2.246c0-4.236-1.668-6.033-7.373-6.033-2.653-.12-5.27.647-7.438 2.183-.321.256-.705.256-.898-.065L294.53 30.5a.684.684 0 01.128-.898 17.024 17.024 0 0110.451-3.017c8.72 0 12.054 2.888 12.054 10.461V57.39a.616.616 0 01-.176.465.604.604 0 01-.465.177h-3.783zm-.769-9.947v-3.402a.343.343 0 00-.229-.37.341.341 0 00-.156-.015h-6.155c-5.322 0-7.63 1.54-7.63 5.005 0 3.146 2.308 4.814 6.412 4.814 4.808 0 7.758-2.246 7.758-6.032zM325.5 69.584a.604.604 0 01-.641-.642V65.22a.6.6 0 01.177-.466.599.599 0 01.464-.176h1.155c2.5 0 3.846-1.09 5.193-4.621l1.026-2.823-11.285-29.201c-.128-.385.064-.642.513-.642h4.488a.752.752 0 01.77.642l8.078 22.205h.129l7.758-22.205a.75.75 0 01.769-.642h4.36c.385 0 .641.257.513.642l-12.118 32.474c-2.693 7.252-5.066 9.177-9.682 9.177H325.5zM146.099 57.314a.61.61 0 01-.603-.39.616.616 0 01-.038-.251V14.316a.6.6 0 01.176-.466.61.61 0 01.465-.176h15.516c8.399 0 13.849 5.134 13.849 13.028 0 7.893-5.45 13.028-13.849 13.028h-10.066a.343.343 0 00-.371.229.343.343 0 00-.014.156v16.558a.616.616 0 01-.176.465.612.612 0 01-.465.176h-4.424zm23.723-30.612c0-4.75-3.142-7.702-8.528-7.702h-9.745a.341.341 0 00-.385.386v14.632a.343.343 0 00.229.37c.05.018.104.022.156.015h9.745c5.386 0 8.528-2.952 8.528-7.701zM188.738 57.636c-5.386 0-7.501-2.568-7.501-8.087V14.316a.596.596 0 01.389-.604.607.607 0 01.252-.038h4.103a.61.61 0 01.603.39c.03.08.043.166.038.252v34.912c0 2.567.962 3.401 3.078 3.401h1.218a.602.602 0 01.603.39c.03.08.043.166.038.252v3.722a.617.617 0 01-.176.466.603.603 0 01-.465.176h-2.18zM215.796 57.314a.602.602 0 01-.603-.39.616.616 0 01-.038-.251v-2.696h-.064c-1.411 2.31-4.424 4.043-9.105 4.043-5.834 0-10.322-3.016-10.322-9.241 0-6.482 4.488-9.498 11.99-9.498h6.988a.34.34 0 00.385-.386V36.65c0-4.235-1.668-6.032-7.373-6.032a11.93 11.93 0 00-7.438 2.182c-.32.257-.705.257-.898-.065l-1.731-2.952a.679.679 0 01.128-.898 17.024 17.024 0 0110.451-3.016c8.72 0 12.054 2.888 12.054 10.46v20.345a.616.616 0 01-.176.465.604.604 0 01-.465.176h-3.783zm-.769-9.947v-3.401a.343.343 0 00-.229-.372.343.343 0 00-.156-.014h-6.155c-5.322 0-7.63 1.54-7.63 5.006 0 3.145 2.308 4.814 6.412 4.814 4.808 0 7.758-2.247 7.758-6.033zM248.497 57.314a.607.607 0 01-.641-.641v-17.97c0-4.942-2.245-7.83-6.861-7.83-4.167 0-7.053 2.953-7.053 7.51v18.29a.6.6 0 01-.176.465.609.609 0 01-.465.176h-4.103a.61.61 0 01-.603-.39.616.616 0 01-.038-.251V27.215a.616.616 0 01.176-.465.604.604 0 01.465-.177h4.103a.61.61 0 01.603.39c.03.08.043.166.038.252v2.824h.064c1.475-2.374 4.425-4.171 8.592-4.171 6.668 0 10.643 4.556 10.643 11.551v19.254a.616.616 0 01-.176.465.605.605 0 01-.465.176h-4.103zM91.951 29.68A30.032 30.032 0 0084.1 15.234a29.97 29.97 0 00-30.694-7.53A29.995 29.995 0 0039.77 16.88L1.728 62.26c-2.468 2.944-2.276 6.22.463 8.52 2.738 2.3 5.994 1.92 8.462-1.024l22.777-27.17L48.59 24.5l.003.003c.034-.042.067-.086.102-.127.207-.247.418-.487.634-.72l.106-.111a18.172 18.172 0 0125.071-1.508s.043.027.123.072a18.226 18.226 0 016.387 12.46 18.245 18.245 0 01-4.328 13.317c-.207.247-.705.793-.74.83a18.212 18.212 0 01-25.195 1.436 18.684 18.684 0 01-3.79-4.374 3.247 3.247 0 00-5.248-.373l-4.879 5.834a30.256 30.256 0 006.64 7.814 29.678 29.678 0 0021.835 6.994 29.664 29.664 0 0020.301-10.664s8.37-9.716 6.34-25.704z"></path><path fill="#199BD7" d="M91.97 29.684l22.778-27.17c2.468-2.945 5.724-3.324 8.462-1.024 2.739 2.3 2.931 5.575.463 8.52l-38.06 45.374A29.692 29.692 0 0165.31 66.048a29.658 29.658 0 01-21.836-6.993 30.259 30.259 0 01-6.639-7.815l4.879-5.834a3.247 3.247 0 015.249.373 18.805 18.805 0 003.809 4.38 18.2 18.2 0 0025.163-1.436c.01-.01.588-.649.74-.83l15.295-18.209z"></path></svg>